# xmcd
#
# Track frame offsets: 
#        150
#        13535
#        23312
#        36630
#        50222
#        63025
#        77682
#        89152
#        104122
#        128962
#        140850
#        169457
#        181562
#        192825
#        204555
#        217150
#        230710
#        243502
#        256250
#        270265
#
# Disc length: 3825 seconds
#
# Revision: 2
# Processed by: cddbd v1.4PL0 Copyright (c) Steve Scherf et al.
# Submitted via: ExactAudioCopy v0.90b4
#
DISCID=2a0eef14
DTITLE=Ray Charles - Greatest Hits CD2
DYEAR=1997
DGENRE=Jazz
TTITLE0=Take These Chains From My Heart
TTITLE1=Busted
TTITLE2=Crying Time
TTITLE3=Let's Go Get Stoned
TTITLE4=My Heart Cries
TTITLE5=Here We Go Again
TTITLE6=I Don't Need No Doctor
TTITLE7=Smack Dab In The Middle
TTITLE8=Ol' Man River
TTITLE9=Baby, Don't You Cry
TTITLE10=Makin' Whoopee
TTITLE11=Together Again
TTITLE12=I Chose To Sing The Blues
TTITLE13=In The Heat Of The Night
TTITLE14=Yesterday
TTITLE15=Eleanor Rigby
TTITLE16=Them That Got
TTITLE17=If You Were Mine
TTITLE18=Don't Change On Me
TTITLE19=Look What They've Done To My Song, Ma
EXTD=
EXTT0=
EXTT1=
EXTT2=
EXTT3=
EXTT4=
EXTT5=
EXTT6=
EXTT7=
EXTT8=
EXTT9=
EXTT10=
EXTT11=
EXTT12=
EXTT13=
EXTT14=
EXTT15=
EXTT16=
EXTT17=
EXTT18=
EXTT19=
PLAYORDER=
